# xmcd
#
# Track frame offsets:
#      150
#      20745
#      41499
#      60969
#      79671
#      101243
#      119127
#      137927
#      157811
#      188838
#      211668
#      227337
#      245344
#      264959
#      285533
#      306873
# 
# Disc length: 4313 seconds
#
# Revision: 2
# Processed by: cddbd v1.5.1PL0 Copyright (c) Steve Scherf et al.
#
# Submitted via: FreeRIP 1.21
#
DISCID=d310d710
DTITLE=Chris Rea - The Best Of
DYEAR=1994
DGENRE=blues
TTITLE0=The Road To Hell
TTITLE1=Josephine
TTITLE2=Let's Dance
TTITLE3=Fool (if you think it's over)
TTITLE4=Auberge
TTITLE5=Julia
TTITLE6=Stainsby Girls
TTITLE7=If Aou Were Me (with Elton John)
TTITLE8=On The Beach
TTITLE9=Looking For The Summer
TTITLE10=I Can Hear Your Heartbeat
TTITLE11=You Can Go Your Own Way
TTITLE12=God's Great Banana Skin
TTITLE13=Winter Song
TTITLE14=Gone Fishing
TTITLE15=Tell me there's a Heaven
EXTD=
EXTT0=
EXTT1=
EXTT2=
EXTT3=
EXTT4=
EXTT5=
EXTT6=
EXTT7=
EXTT8=
EXTT9=
EXTT10=
EXTT11=
EXTT12=
EXTT13=
EXTT14=
EXTT15=
PLAYORDER=
